<svg width="129" height="24" viewBox="0 0 129 24" fill="none" xmlns="http://www.w3.org/2000/svg">
<path d="M0.474144 23V0.887834H8.53771C10.4344 0.887834 12.0757 1.20723 13.4614 1.84603C14.8569 2.475 15.9281 3.37422 16.675 4.54371C17.4317 5.70337 17.8101 7.08415 17.8101 8.68606C17.8101 10.288 17.4317 11.6786 16.675 12.8579C15.9281 14.0274 14.8667 14.9315 13.4908 15.5703C12.115 16.2091 10.4885 16.5285 8.61142 16.5285H6.31176V23H0.474144ZM6.31176 11.4427H7.9628C9.22073 11.4427 10.1789 11.2068 10.8374 10.7351C11.5057 10.2634 11.8398 9.58037 11.8398 8.68606C11.8398 7.8114 11.5057 7.14312 10.8374 6.68122C10.1691 6.2095 9.21091 5.97363 7.9628 5.97363H6.31176V11.4427ZM40.335 23H33.8783L29.6622 15.6882H26.596V23H20.7584V0.887834H30.1044C32.0208 0.887834 33.6522 1.17775 34.9986 1.75758C36.345 2.33741 37.372 3.18259 38.0796 4.29311C38.797 5.3938 39.1557 6.72545 39.1557 8.28804C39.1557 9.75236 38.8412 11.0152 38.2122 12.0766C37.5833 13.138 36.6742 13.9733 35.4851 14.5826L40.335 23ZM26.596 11.1921H29.6475C30.817 11.1921 31.6965 10.9759 32.2862 10.5435C32.8857 10.1012 33.1854 9.4477 33.1854 8.58287C33.1854 7.71804 32.8857 7.06941 32.2862 6.637C31.6965 6.19475 30.817 5.97363 29.6475 5.97363H26.596V11.1921ZM42.104 23V0.887834H56.8454V5.97363H47.9416V9.39365H56.2558V14.4794H47.9416V17.9142H56.9928V23H42.104ZM79.1197 20.2581C78.078 21.2605 76.8447 22.0418 75.4196 22.602C74.0045 23.1622 72.4615 23.4422 70.7908 23.4422C69.1103 23.4422 67.5526 23.1572 66.1178 22.5872C64.6928 22.0074 63.4496 21.2015 62.3882 20.1696C61.3367 19.1279 60.516 17.9093 59.9264 16.5138C59.3466 15.1182 59.0566 13.595 59.0566 11.9439C59.0566 10.2929 59.3466 8.76959 59.9264 7.37407C60.516 5.97855 61.3367 4.76483 62.3882 3.73293C63.4496 2.6912 64.6928 1.88534 66.1178 1.31534C67.5526 0.735506 69.1103 0.445591 70.7908 0.445591C72.4517 0.445591 73.9848 0.730592 75.3902 1.30059C76.8053 1.86077 78.0338 2.64207 79.0755 3.64448L75.0069 7.74261C74.4958 7.05467 73.8669 6.51415 73.12 6.12105C72.3829 5.72794 71.577 5.53139 70.7024 5.53139C69.8965 5.53139 69.1496 5.69354 68.4617 6.01786C67.7738 6.34217 67.1694 6.79424 66.6485 7.37407C66.1375 7.9539 65.7394 8.63201 65.4544 9.40839C65.1694 10.1848 65.0269 11.025 65.0269 11.9292C65.0269 12.8431 65.1694 13.6883 65.4544 14.4647C65.7394 15.2411 66.1375 15.9241 66.6485 16.5138C67.1694 17.0936 67.7738 17.5457 68.4617 17.87C69.1496 18.1943 69.8965 18.3564 70.7024 18.3564C71.577 18.3564 72.3829 18.1599 73.12 17.7668C73.8571 17.3737 74.4811 16.8332 74.9921 16.1452L79.1197 20.2581ZM81.3457 23V0.887834H87.1833V23H81.3457ZM105.168 23H90.1316V0.887834H95.9692V17.9142H105.168V23ZM116.755 23.4422C115.064 23.4422 113.502 23.1572 112.067 22.5872C110.642 22.0074 109.399 21.2015 108.337 20.1696C107.286 19.1279 106.47 17.9093 105.89 16.5138C105.31 15.1182 105.02 13.595 105.02 11.9439C105.02 10.2929 105.31 8.76959 105.89 7.37407C106.47 5.97855 107.286 4.76483 108.337 3.73293C109.399 2.6912 110.642 1.88534 112.067 1.31534C113.502 0.735506 115.064 0.445591 116.755 0.445591C118.455 0.445591 120.017 0.735506 121.442 1.31534C122.867 1.88534 124.101 2.6912 125.143 3.73293C126.194 4.76483 127.01 5.97855 127.59 7.37407C128.169 8.76959 128.459 10.2929 128.459 11.9439C128.459 13.595 128.169 15.1182 127.59 16.5138C127.01 17.9093 126.194 19.1279 125.143 20.1696C124.101 21.2015 122.867 22.0074 121.442 22.5872C120.017 23.1572 118.455 23.4422 116.755 23.4422ZM116.755 18.3564C117.57 18.3564 118.327 18.1943 119.025 17.87C119.723 17.5457 120.327 17.0936 120.838 16.5138C121.359 15.9241 121.762 15.2411 122.047 14.4647C122.342 13.6883 122.489 12.8481 122.489 11.9439C122.489 11.0398 122.342 10.1995 122.047 9.42313C121.762 8.64675 121.359 7.96864 120.838 7.38881C120.327 6.79915 119.723 6.34217 119.025 6.01786C118.327 5.69354 117.57 5.53139 116.755 5.53139C115.939 5.53139 115.177 5.69354 114.47 6.01786C113.772 6.34217 113.163 6.79915 112.642 7.38881C112.121 7.96864 111.713 8.64675 111.418 9.42313C111.133 10.1995 110.991 11.0398 110.991 11.9439C110.991 12.8481 111.133 13.6883 111.418 14.4647C111.713 15.2411 112.121 15.9241 112.642 16.5138C113.163 17.0936 113.772 17.5457 114.47 17.87C115.177 18.1943 115.939 18.3564 116.755 18.3564Z" fill="white"/>
</svg>
