<svg width="50" height="50" viewBox="0 0 50 50" fill="none" xmlns="http://www.w3.org/2000/svg">
<path d="M37.6929 21.3915C39.2651 17.461 39.2651 13.9797 37.2437 11.9584C36.6261 11.3407 35.8961 10.9477 34.9977 10.6669C34.8293 9.48778 33.8186 8.53323 32.5833 8.53323C31.348 8.53323 30.3373 9.48778 30.1688 10.7231C29.3827 10.8915 28.5967 11.1723 27.7544 11.5092C25.1154 8.14018 22.0833 6.45569 19.3881 7.18564C16.6368 7.91559 14.8961 10.8915 14.2785 15.1027C13.6608 15.215 13.0432 15.3273 12.4256 15.4396C11.9764 14.7658 11.2464 14.3728 10.4042 14.3728C9.05658 14.3728 7.98973 15.4396 7.98973 16.7872C7.98973 17.0118 8.04588 17.2364 8.10203 17.461C7.20364 18.191 6.58599 19.0894 6.30524 20.1562C5.6876 22.4022 6.75444 24.8728 9.00043 27.1188C9.50577 27.6241 10.0111 28.0733 10.6288 28.5225C9.05658 32.453 9.05658 35.9343 11.078 37.9556C13.0432 39.977 16.5806 39.977 20.5111 38.4048C20.9603 38.9663 21.4656 39.5278 21.9148 40.0332C24.1608 42.2792 26.6314 43.346 28.8774 42.7284C29.7758 42.5038 30.618 41.9984 31.2918 41.2685C31.5164 41.3246 31.6849 41.3808 31.9095 41.3808C33.2571 41.3808 34.3239 40.3139 34.3239 38.9663C34.3239 38.2364 33.987 37.6188 33.4817 37.1696C33.7063 36.4396 33.8747 35.6535 33.987 34.8674C38.1982 34.2498 41.1742 32.5091 41.9041 29.7578C42.7464 27.0065 41.0619 23.9744 37.6929 21.3915ZM30.618 12.3514C31.0672 13.0252 31.7972 13.4183 32.6394 13.4183C33.4817 13.4183 34.2678 12.9691 34.6608 12.2953C35.2223 12.4637 35.6715 12.7445 36.0646 13.1375C37.5244 14.5974 37.4683 17.2364 36.2892 20.3808C34.8854 19.4263 33.2009 18.5279 31.4041 17.7979C30.618 16.0011 29.7758 14.3166 28.8213 12.9129C29.4389 12.6883 30.0565 12.4637 30.618 12.3514ZM26.4068 33.0706C23.5432 32.6776 20.848 31.9476 18.3213 30.8808C17.2544 28.2979 16.5245 25.4343 16.1314 22.7952C17.8159 20.6616 19.7812 18.6402 22.0833 16.8434C25.0031 17.2926 27.6983 18.0225 30.1688 19.0332C31.2357 21.7284 31.9656 24.4797 32.3587 27.1188C30.6742 29.2525 28.709 31.2738 26.4068 33.0706ZM32.5833 29.4771C32.6956 30.8246 32.6956 32.1722 32.5833 33.3514C31.348 33.4637 30.0565 33.4637 28.709 33.3514C30.1688 32.0599 31.4603 30.7685 32.5833 29.4771ZM27.2491 13.5867C27.9229 14.5974 28.5967 15.7204 29.1581 16.9557C27.4737 16.338 25.733 15.8888 23.8801 15.5519C25.0592 14.7658 26.1822 14.092 27.2491 13.5867ZM19.8935 8.75783C22.3079 8.14018 24.7223 10.2739 26.2945 12.183C24.7785 12.9691 23.2063 13.9236 21.6341 15.1027C19.6689 14.8781 17.8159 14.822 16.1314 14.9343C16.5806 11.6215 17.9282 9.31933 19.8935 8.75783ZM15.8507 16.6188C17.086 16.5065 18.3774 16.5065 19.725 16.6188C18.3213 17.8541 17.086 19.0894 15.8507 20.4931C15.7945 19.1455 15.7945 17.8541 15.8507 16.6188ZM16.1876 29.9824C14.9523 29.3648 13.8293 28.7471 12.8186 28.0172C13.3239 26.8942 13.9977 25.7712 14.7838 24.6482C15.1207 26.5011 15.5699 28.2418 16.1876 29.9824ZM7.98973 20.6616C8.15818 19.9878 8.55123 19.3701 9.16888 18.8648C9.56192 19.0894 10.0111 19.2578 10.5165 19.2578C11.7518 19.2578 12.7625 18.3033 12.9309 17.068C13.3239 16.9557 13.7731 16.8995 14.2223 16.7872C14.11 18.4717 14.1662 20.3247 14.3908 22.2899C13.2116 23.8621 12.201 25.4343 11.471 26.9503C8.83198 24.9289 7.48439 22.6268 7.98973 20.6616ZM12.3694 36.8327C10.9095 35.3728 10.9657 32.7337 12.1448 29.5894C13.5485 30.5439 15.233 31.4423 17.0298 32.1722C17.8159 33.969 18.6582 35.6535 19.6127 37.0573C16.4683 38.2364 13.7731 38.2925 12.3694 36.8327ZM21.1849 36.3835C20.5111 35.3728 19.8373 34.2498 19.2197 33.0145C20.9042 33.576 22.4763 34.0252 24.4977 34.4182C23.3747 35.2043 22.2517 35.8781 21.1849 36.3835ZM32.0218 36.5519C30.6742 36.5519 29.6073 37.6188 29.6073 38.9663C29.6073 39.4717 29.7758 39.977 30.0565 40.3701C29.6073 40.7631 29.1581 41.0439 28.5967 41.2123C26.6314 41.7177 24.3293 40.3701 22.1956 37.7872C23.7116 37.0573 25.2838 36.0466 26.856 34.8674C28.8213 35.092 30.6742 35.1482 32.3587 35.0359C32.3025 35.5412 32.1902 36.1027 32.0218 36.5519ZM32.2464 19.9878C33.4817 20.6054 34.6047 21.2231 35.6154 21.953C35.11 23.0198 34.4362 24.199 33.6501 25.322C33.3694 23.5252 32.864 21.7845 32.2464 19.9878ZM40.4442 29.3086C39.9389 31.2738 37.5806 32.5653 34.2678 33.1268C34.3801 31.4423 34.3239 29.5894 34.0432 27.6241C35.2223 26.0519 36.233 24.4797 36.9629 22.9637C39.602 25.0412 40.9496 27.3434 40.4442 29.3086Z" fill="#FF8412"/>
<path d="M27.5297 21.9535L25.1714 23.3011V20.606H23.2623V23.3011L20.904 21.9535L19.9495 23.638L22.2516 24.9856L19.9495 26.3332L20.904 28.0177L23.2623 26.6701V29.3653H25.1714V26.6701L27.5297 28.0177L28.4842 26.3332L26.1821 24.9856L28.4842 23.638L27.5297 21.9535Z" fill="#FF8412"/>
</svg>
