<svg width="50" height="50" viewBox="0 0 50 50" fill="none" xmlns="http://www.w3.org/2000/svg">
<path fill-rule="evenodd" clip-rule="evenodd" d="M19.6132 10.5503C17.8741 10.5503 16.4643 11.9437 16.4643 13.6626C16.4643 15.3814 17.8741 16.7748 19.6132 16.7748C20.1101 16.7748 20.5129 17.1729 20.5129 17.664C20.5129 18.1551 20.1101 18.5532 19.6132 18.5532C17.3513 18.5532 15.4438 17.0533 14.8536 15.0048C13.486 14.9181 12.2432 15.8618 12.0023 17.2267C11.7787 18.4932 12.4916 19.7087 13.6479 20.1769C15.5528 20.8573 16.9141 22.6603 16.9141 24.7777C16.9141 25.2688 16.5113 25.6669 16.0144 25.6669C15.5175 25.6669 15.1147 25.2688 15.1147 24.7777C15.1147 23.4681 14.2964 22.3475 13.1376 21.888C13.0985 21.8741 13.0599 21.8596 13.0215 21.8446C12.6915 21.7286 12.3361 21.6654 11.9658 21.6654C10.2268 21.6654 8.81695 23.0588 8.81695 24.7777C8.81695 26.4965 10.2268 27.8899 11.9658 27.8899C12.2076 27.8899 12.442 27.8631 12.6664 27.8128C13.151 27.7041 13.633 28.0043 13.7429 28.4832C13.8363 28.8901 13.6312 29.2951 13.2702 29.4744C13.2465 29.4888 13.222 29.5022 13.1966 29.5147C12.6508 29.7817 12.1869 30.22 11.895 30.8018C11.1878 32.2118 11.7709 33.9215 13.1976 34.6205C14.6242 35.3195 16.354 34.7432 17.0613 33.3332C17.3235 32.8103 17.4081 32.2489 17.3392 31.712C17.2766 31.2249 17.6255 30.7798 18.1184 30.718C18.6113 30.6562 19.0617 31.0009 19.1242 31.4881C19.2364 32.3616 19.0978 33.2769 18.6734 34.123C18.1829 35.101 17.3895 35.832 16.4609 36.2603C16.4631 36.2857 16.4643 36.3114 16.4643 36.3374C16.4643 38.0562 17.8741 39.4496 19.6132 39.4496C21.3523 39.4496 22.7621 38.0562 22.7621 36.3374V13.6626C22.7621 11.9437 21.3523 10.5503 19.6132 10.5503ZM14.6777 36.6921C14.8616 39.2276 17.001 41.2281 19.6132 41.2281C22.346 41.2281 24.5614 39.0384 24.5614 36.3374V35.2259H27.3909C27.778 36.5115 28.9829 37.4489 30.4094 37.4489C32.1485 37.4489 33.5583 36.0555 33.5583 34.3367C33.5583 32.6178 32.1485 31.2244 30.4094 31.2244C28.9829 31.2244 27.778 32.1619 27.3909 33.4475H24.5614V29.2237H31.9388C32.251 29.2237 32.5536 29.3307 32.7949 29.5265L34.7976 31.1509C34.5804 31.5735 34.458 32.0518 34.458 32.5583C34.458 34.2771 35.8678 35.6705 37.6069 35.6705C39.346 35.6705 40.7558 34.2771 40.7558 32.5583C40.7558 30.8394 39.346 29.446 37.6069 29.446C37.0365 29.446 36.5015 29.5959 36.0401 29.858L33.9364 28.1517C33.3733 27.695 32.6673 27.4453 31.9388 27.4453H24.5614V24.7777H36.0142C36.467 25.9476 37.6135 26.7784 38.9564 26.7784C40.6955 26.7784 42.1053 25.385 42.1053 23.6662C42.1053 21.9473 40.6955 20.5539 38.9564 20.5539C37.4489 20.5539 36.1889 21.6009 35.88 22.9993H24.5614V20.3316H28.578C29.4132 20.3316 30.2141 20.0037 30.8047 19.4201L32.2094 18.0317C32.6183 18.2236 33.0756 18.3309 33.5583 18.3309C35.2974 18.3309 36.7072 16.9375 36.7072 15.2187C36.7072 13.4998 35.2974 12.1064 33.5583 12.1064C31.8192 12.1064 30.4094 13.4998 30.4094 15.2187C30.4094 15.8128 30.5779 16.3681 30.8701 16.8403L29.5323 18.1625C29.2792 18.4127 28.936 18.5532 28.578 18.5532H24.5614V13.6626C24.5614 10.9615 22.346 8.77191 19.6132 8.77191C17.031 8.77191 14.9108 10.7267 14.6848 13.2206C12.526 13.217 10.6133 14.7477 10.2297 16.9211C10.0331 18.0348 10.272 19.1237 10.825 20.0177C8.64214 20.5268 7.01758 22.4647 7.01758 24.7777C7.01758 27.0091 8.5296 28.8915 10.5963 29.4786C10.4815 29.6471 10.3766 29.8251 10.2829 30.0119C9.13422 32.3019 10.0813 35.0786 12.3983 36.2139C13.1316 36.5732 13.9141 36.725 14.6777 36.6921ZM29.0599 34.3367C29.0599 35.0733 29.664 35.6705 30.4094 35.6705C31.1547 35.6705 31.7589 35.0733 31.7589 34.3367C31.7589 33.6 31.1547 33.0029 30.4094 33.0029C29.664 33.0029 29.0599 33.6 29.0599 34.3367ZM36.5482 31.731C36.6139 31.6855 36.6745 31.6305 36.7279 31.5663C36.7425 31.5487 36.7563 31.5306 36.7694 31.5123C36.9994 31.3321 37.2905 31.2244 37.6069 31.2244C38.3522 31.2244 38.9564 31.8216 38.9564 32.5583C38.9564 33.2949 38.3522 33.8921 37.6069 33.8921C36.8615 33.8921 36.2573 33.2949 36.2573 32.5583C36.2573 32.2457 36.3661 31.9584 36.5482 31.731ZM33.5583 13.8849C32.8129 13.8849 32.2088 14.482 32.2088 15.2187C32.2088 15.9553 32.8129 16.5525 33.5583 16.5525C34.3036 16.5525 34.9078 15.9553 34.9078 15.2187C34.9078 14.482 34.3036 13.8849 33.5583 13.8849ZM38.9564 22.3324C38.2111 22.3324 37.6069 22.9295 37.6069 23.6662C37.6069 24.4028 38.2111 25 38.9564 25C39.7017 25 40.3059 24.4028 40.3059 23.6662C40.3059 22.9295 39.7017 22.3324 38.9564 22.3324Z" fill="white"/>
</svg>
