<svg width="277" height="92" viewBox="0 0 277 92" fill="none" xmlns="http://www.w3.org/2000/svg">
<path d="M1.47414 46V23.8878H9.53771C11.4344 23.8878 13.0757 24.2072 14.4614 24.846C15.8569 25.475 16.9281 26.3742 17.675 27.5437C18.4317 28.7034 18.8101 30.0842 18.8101 31.6861C18.8101 33.288 18.4317 34.6786 17.675 35.8579C16.9281 37.0274 15.8667 37.9315 14.4908 38.5703C13.115 39.2091 11.4885 39.5285 9.61142 39.5285H7.31176V46H1.47414ZM7.31176 34.4427H8.9628C10.2207 34.4427 11.1789 34.2068 11.8374 33.7351C12.5057 33.2634 12.8398 32.5804 12.8398 31.6861C12.8398 30.8114 12.5057 30.1431 11.8374 29.6812C11.1691 29.2095 10.2109 28.9736 8.9628 28.9736H7.31176V34.4427ZM41.335 46H34.8783L30.6622 38.6882H27.596V46H21.7584V23.8878H31.1044C33.0208 23.8878 34.6522 24.1777 35.9986 24.7576C37.345 25.3374 38.372 26.1826 39.0796 27.2931C39.797 28.3938 40.1557 29.7254 40.1557 31.288C40.1557 32.7524 39.8412 34.0152 39.2122 35.0766C38.5833 36.138 37.6742 36.9733 36.4851 37.5826L41.335 46ZM27.596 34.1921H30.6475C31.817 34.1921 32.6965 33.9759 33.2862 33.5435C33.8857 33.1012 34.1854 32.4477 34.1854 31.5829C34.1854 30.718 33.8857 30.0694 33.2862 29.637C32.6965 29.1948 31.817 28.9736 30.6475 28.9736H27.596V34.1921ZM43.104 46V23.8878H57.8454V28.9736H48.9416V32.3936H57.2558V37.4794H48.9416V40.9142H57.9928V46H43.104ZM80.1197 43.2581C79.078 44.2605 77.8447 45.0418 76.4196 45.602C75.0045 46.1622 73.4615 46.4422 71.7908 46.4422C70.1103 46.4422 68.5526 46.1572 67.1178 45.5872C65.6928 45.0074 64.4496 44.2015 63.3882 43.1696C62.3367 42.1279 61.516 40.9093 60.9264 39.5138C60.3466 38.1182 60.0566 36.595 60.0566 34.9439C60.0566 33.2929 60.3466 31.7696 60.9264 30.3741C61.516 28.9785 62.3367 27.7648 63.3882 26.7329C64.4496 25.6912 65.6928 24.8853 67.1178 24.3153C68.5526 23.7355 70.1103 23.4456 71.7908 23.4456C73.4517 23.4456 74.9848 23.7306 76.3902 24.3006C77.8053 24.8608 79.0338 25.6421 80.0755 26.6445L76.0069 30.7426C75.4958 30.0547 74.8669 29.5142 74.12 29.121C73.3829 28.7279 72.577 28.5314 71.7024 28.5314C70.8965 28.5314 70.1496 28.6935 69.4617 29.0179C68.7738 29.3422 68.1694 29.7942 67.6485 30.3741C67.1375 30.9539 66.7394 31.632 66.4544 32.4084C66.1694 33.1848 66.0269 34.025 66.0269 34.9292C66.0269 35.8431 66.1694 36.6883 66.4544 37.4647C66.7394 38.2411 67.1375 38.9241 67.6485 39.5138C68.1694 40.0936 68.7738 40.5457 69.4617 40.87C70.1496 41.1943 70.8965 41.3564 71.7024 41.3564C72.577 41.3564 73.3829 41.1599 74.12 40.7668C74.8571 40.3737 75.4811 39.8332 75.9921 39.1452L80.1197 43.2581ZM82.3457 46V23.8878H88.1833V46H82.3457ZM106.168 46H91.1316V23.8878H96.9692V40.9142H106.168V46ZM117.755 46.4422C116.064 46.4422 114.502 46.1572 113.067 45.5872C111.642 45.0074 110.399 44.2015 109.337 43.1696C108.286 42.1279 107.47 40.9093 106.89 39.5138C106.31 38.1182 106.02 36.595 106.02 34.9439C106.02 33.2929 106.31 31.7696 106.89 30.3741C107.47 28.9785 108.286 27.7648 109.337 26.7329C110.399 25.6912 111.642 24.8853 113.067 24.3153C114.502 23.7355 116.064 23.4456 117.755 23.4456C119.455 23.4456 121.017 23.7355 122.442 24.3153C123.867 24.8853 125.101 25.6912 126.143 26.7329C127.194 27.7648 128.01 28.9785 128.59 30.3741C129.169 31.7696 129.459 33.2929 129.459 34.9439C129.459 36.595 129.169 38.1182 128.59 39.5138C128.01 40.9093 127.194 42.1279 126.143 43.1696C125.101 44.2015 123.867 45.0074 122.442 45.5872C121.017 46.1572 119.455 46.4422 117.755 46.4422ZM117.755 41.3564C118.57 41.3564 119.327 41.1943 120.025 40.87C120.723 40.5457 121.327 40.0936 121.838 39.5138C122.359 38.9241 122.762 38.2411 123.047 37.4647C123.342 36.6883 123.489 35.8481 123.489 34.9439C123.489 34.0398 123.342 33.1995 123.047 32.4231C122.762 31.6467 122.359 30.9686 121.838 30.3888C121.327 29.7992 120.723 29.3422 120.025 29.0179C119.327 28.6935 118.57 28.5314 117.755 28.5314C116.939 28.5314 116.177 28.6935 115.47 29.0179C114.772 29.3422 114.163 29.7992 113.642 30.3888C113.121 30.9686 112.713 31.6467 112.418 32.4231C112.133 33.1995 111.991 34.0398 111.991 34.9439C111.991 35.8481 112.133 36.6883 112.418 37.4647C112.713 38.2411 113.121 38.9241 113.642 39.5138C114.163 40.0936 114.772 40.5457 115.47 40.87C116.177 41.1943 116.939 41.3564 117.755 41.3564ZM144.142 46H138.304V23.8878H144.142V32.5853H151.852V23.8878H157.689V46H151.852V37.6711H144.142V46ZM160.652 46V23.8878H175.394V28.9736H166.49V32.3936H174.804V37.4794H166.49V40.9142H175.541V46H160.652ZM183.133 46H177.015L185.654 23.8878H191.771L200.395 46H194.277L192.848 42.064H184.563L183.133 46ZM186.42 36.9782H191.005L188.705 30.6689L186.42 36.9782ZM217.053 46H202.017V23.8878H207.854V40.9142H217.053V46ZM225.927 46H220.09V28.9736H213.957V23.8878H232.06V28.9736H225.927V46ZM239.519 46H233.681V23.8878H239.519V32.5853H247.229V23.8878H253.066V46H247.229V37.6711H239.519V46Z" fill="white"/>
<path d="M1.63419 69.3129H0.463303L5.70283 56.6774H6.93269L12.1722 69.3129H10.9929L9.50191 65.6655H3.13361L1.63419 69.3129ZM3.52952 64.6715H9.106L6.31776 57.8736L3.52952 64.6715ZM24.833 69.3129H23.6284L15.1374 58.379V69.3129H14.0254V56.6774H15.23L23.7211 67.6113V56.6774H24.833V69.3129ZM27.6213 69.3129V56.6774H31.0918C32.653 56.6774 33.9896 56.9301 35.1015 57.4355C36.2134 57.9353 37.067 58.657 37.6623 59.6004C38.2576 60.5439 38.5552 61.6755 38.5552 62.9952C38.5552 64.3093 38.2576 65.4408 37.6623 66.3899C37.067 67.3334 36.2134 68.0578 35.1015 68.5632C33.9896 69.063 32.653 69.3129 31.0918 69.3129H27.6213ZM28.7332 68.3189H31.1508C32.4705 68.3189 33.5965 68.1083 34.5287 67.6872C35.4665 67.266 36.1825 66.6595 36.6767 65.8676C37.1709 65.0702 37.418 64.1127 37.418 62.9952C37.418 61.872 37.1709 60.9145 36.6767 60.1227C36.1825 59.3309 35.4665 58.7244 34.5287 58.3032C33.5965 57.882 32.4705 57.6714 31.1508 57.6714H28.7332V68.3189ZM49.2785 69.3129H48.1666V57.6714H43.9969V56.6774H53.4567V57.6714H49.2785V69.3129ZM55.2341 69.3129V56.6774H62.8407V57.6714H56.346V62.3802H62.4953V63.3742H56.346V68.3189H62.9249V69.3129H55.2341ZM76.1585 67.6872C75.5857 68.2768 74.8978 68.7373 74.0947 69.0686C73.2916 69.4 72.4184 69.5656 71.4749 69.5656C70.5259 69.5656 69.6526 69.4028 68.8552 69.0771C68.0577 68.7513 67.3642 68.2937 66.7745 67.704C66.1905 67.1087 65.7356 66.4124 65.4099 65.6149C65.0898 64.8119 64.9297 63.9386 64.9297 62.9952C64.9297 62.0461 65.0898 61.1728 65.4099 60.3754C65.7356 59.5723 66.1905 58.876 66.7745 58.2863C67.3642 57.6967 68.0577 57.239 68.8552 56.9133C69.6526 56.5876 70.5259 56.4247 71.4749 56.4247C72.4184 56.4247 73.2888 56.5904 74.0863 56.9217C74.8893 57.253 75.5801 57.7107 76.1585 58.2948L75.3751 59.0866C74.8978 58.5643 74.3221 58.1572 73.6483 57.8651C72.98 57.5675 72.2471 57.4187 71.4497 57.4187C70.6747 57.4187 69.9587 57.5591 69.3016 57.8399C68.6446 58.115 68.0746 58.5053 67.5916 59.0108C67.1087 59.5106 66.7324 60.1002 66.4629 60.7797C66.1989 61.4536 66.0669 62.1921 66.0669 62.9952C66.0669 63.7982 66.1989 64.5395 66.4629 65.219C66.7324 65.8929 67.1087 66.4826 67.5916 66.988C68.0746 67.4878 68.6446 67.8781 69.3016 68.1589C69.9587 68.4341 70.6747 68.5716 71.4497 68.5716C72.2471 68.5716 72.98 68.4256 73.6483 68.1336C74.3221 67.836 74.8978 67.426 75.3751 66.9038L76.1585 67.6872ZM79.5448 69.3129H78.4329V56.6774H79.5448V62.5824H87.1261V56.6774H88.2381V69.3129H87.1261V63.5764H79.5448V69.3129ZM101.825 69.3129H100.621L92.1298 58.379V69.3129H91.0179V56.6774H92.2225L100.714 67.6113V56.6774H101.825V69.3129ZM110.544 69.5656C109.595 69.5656 108.722 69.4028 107.924 69.0771C107.127 68.7513 106.433 68.2937 105.844 67.704C105.26 67.1087 104.805 66.4124 104.479 65.6149C104.159 64.8119 103.999 63.9386 103.999 62.9952C103.999 62.0461 104.159 61.1728 104.479 60.3754C104.805 59.5723 105.26 58.876 105.844 58.2863C106.433 57.6967 107.127 57.239 107.924 56.9133C108.722 56.5876 109.595 56.4247 110.544 56.4247C111.487 56.4247 112.355 56.5876 113.147 56.9133C113.944 57.239 114.635 57.6967 115.219 58.2863C115.809 58.876 116.264 59.5723 116.584 60.3754C116.909 61.1728 117.072 62.0461 117.072 62.9952C117.072 63.9386 116.909 64.8119 116.584 65.6149C116.264 66.4124 115.809 67.1087 115.219 67.704C114.635 68.2937 113.944 68.7513 113.147 69.0771C112.355 69.4028 111.487 69.5656 110.544 69.5656ZM110.536 68.5716C111.316 68.5716 112.035 68.4341 112.692 68.1589C113.349 67.8781 113.919 67.4878 114.402 66.988C114.891 66.4826 115.267 65.8901 115.531 65.2106C115.8 64.5311 115.935 63.7926 115.935 62.9952C115.935 62.1977 115.8 61.4592 115.531 60.7797C115.267 60.1002 114.891 59.5106 114.402 59.0108C113.919 58.5053 113.349 58.115 112.692 57.8399C112.035 57.5591 111.316 57.4187 110.536 57.4187C109.761 57.4187 109.045 57.5591 108.388 57.8399C107.73 58.115 107.158 58.5053 106.669 59.0108C106.186 59.5106 105.81 60.1002 105.54 60.7797C105.271 61.4536 105.136 62.1921 105.136 62.9952C105.136 63.7982 105.271 64.5395 105.54 65.219C105.81 65.8929 106.186 66.4826 106.669 66.988C107.158 67.4878 107.73 67.8781 108.388 68.1589C109.045 68.4341 109.761 68.5716 110.536 68.5716ZM126.819 69.3129H119.237V56.6774H120.349V68.3189H126.819V69.3129ZM134.097 69.5656C133.148 69.5656 132.274 69.4028 131.477 69.0771C130.679 68.7513 129.986 68.2937 129.396 67.704C128.812 67.1087 128.357 66.4124 128.032 65.6149C127.711 64.8119 127.551 63.9386 127.551 62.9952C127.551 62.0461 127.711 61.1728 128.032 60.3754C128.357 59.5723 128.812 58.876 129.396 58.2863C129.986 57.6967 130.679 57.239 131.477 56.9133C132.274 56.5876 133.148 56.4247 134.097 56.4247C135.04 56.4247 135.908 56.5876 136.7 56.9133C137.497 57.239 138.188 57.6967 138.772 58.2863C139.361 58.876 139.816 59.5723 140.136 60.3754C140.462 61.1728 140.625 62.0461 140.625 62.9952C140.625 63.9386 140.462 64.8119 140.136 65.6149C139.816 66.4124 139.361 67.1087 138.772 67.704C138.188 68.2937 137.497 68.7513 136.7 69.0771C135.908 69.4028 135.04 69.5656 134.097 69.5656ZM134.088 68.5716C134.869 68.5716 135.588 68.4341 136.245 68.1589C136.902 67.8781 137.472 67.4878 137.955 66.988C138.443 66.4826 138.819 65.8901 139.083 65.2106C139.353 64.5311 139.488 63.7926 139.488 62.9952C139.488 62.1977 139.353 61.4592 139.083 60.7797C138.819 60.1002 138.443 59.5106 137.955 59.0108C137.472 58.5053 136.902 58.115 136.245 57.8399C135.588 57.5591 134.869 57.4187 134.088 57.4187C133.313 57.4187 132.597 57.5591 131.94 57.8399C131.283 58.115 130.71 58.5053 130.222 59.0108C129.739 59.5106 129.362 60.1002 129.093 60.7797C128.823 61.4536 128.689 62.1921 128.689 62.9952C128.689 63.7982 128.823 64.5395 129.093 65.219C129.362 65.8929 129.739 66.4826 130.222 66.988C130.71 67.4878 131.283 67.8781 131.94 68.1589C132.597 68.4341 133.313 68.5716 134.088 68.5716ZM152.528 58.9097C152.033 58.4267 151.455 58.0589 150.792 57.8062C150.13 57.5479 149.425 57.4187 148.678 57.4187C147.897 57.4187 147.179 57.5563 146.522 57.8314C145.87 58.101 145.303 58.4857 144.82 58.9855C144.343 59.4853 143.972 60.0778 143.708 60.7629C143.444 61.4424 143.312 62.1893 143.312 63.0036C143.312 63.8066 143.441 64.5479 143.7 65.2274C143.958 65.907 144.32 66.4966 144.786 66.9964C145.252 67.4962 145.803 67.8837 146.437 68.1589C147.077 68.4341 147.777 68.5716 148.535 68.5716C149.254 68.5716 149.919 68.4481 150.531 68.201C151.143 67.9539 151.68 67.6057 152.14 67.1565C152.606 66.7072 152.977 66.1737 153.252 65.556C153.527 64.9326 153.684 64.2531 153.724 63.5174H148.779V62.6161H154.726L154.76 63.0204C154.76 63.9807 154.608 64.8596 154.305 65.657C154.002 66.4545 153.572 67.1452 153.016 67.7293C152.466 68.3133 151.812 68.7654 151.053 69.0855C150.301 69.4056 149.473 69.5656 148.568 69.5656C147.647 69.5656 146.797 69.4028 146.016 69.0771C145.241 68.7513 144.564 68.2937 143.986 67.704C143.413 67.1143 142.967 66.4236 142.647 65.6318C142.332 64.8343 142.175 63.9667 142.175 63.0289C142.175 62.0798 142.335 61.2037 142.655 60.4007C142.981 59.5976 143.436 58.8984 144.02 58.3032C144.604 57.7079 145.292 57.2474 146.084 56.9217C146.875 56.5904 147.737 56.4247 148.67 56.4247C149.551 56.4247 150.385 56.5763 151.171 56.8796C151.963 57.1828 152.665 57.618 153.277 58.1852L152.528 58.9097ZM156.925 69.3129V56.6774H158.037V69.3129H156.925ZM160.817 69.3129V56.6774H168.423V57.6714H161.928V62.3802H168.078V63.3742H161.928V68.3189H168.507V69.3129H160.817ZM170.537 68.1252L171.085 67.266C171.439 67.558 171.798 67.8023 172.163 67.9988C172.534 68.1954 172.913 68.3414 173.3 68.4369C173.688 68.5323 174.081 68.5801 174.48 68.5801C175.097 68.5801 175.639 68.4734 176.106 68.26C176.572 68.041 176.937 67.7405 177.201 67.3586C177.465 66.9768 177.596 66.5359 177.596 66.0361C177.596 65.5026 177.45 65.0646 177.158 64.722C176.872 64.3738 176.501 64.0818 176.047 63.846C175.592 63.6045 175.109 63.377 174.598 63.1636C174.188 62.9895 173.783 62.807 173.385 62.6161C172.986 62.4195 172.624 62.1921 172.298 61.9338C171.972 61.6755 171.711 61.3666 171.515 61.0072C171.324 60.6478 171.228 60.2125 171.228 59.7015C171.228 59.0557 171.391 58.4885 171.717 57.9999C172.042 57.5057 172.492 57.1211 173.065 56.8459C173.643 56.5707 174.311 56.4331 175.069 56.4331C175.575 56.4331 176.077 56.4977 176.577 56.6269C177.083 56.756 177.566 56.947 178.026 57.1997L177.563 58.1179C177.17 57.8932 176.76 57.7219 176.333 57.604C175.912 57.4805 175.493 57.4187 175.078 57.4187C174.544 57.4187 174.073 57.5113 173.663 57.6967C173.258 57.882 172.941 58.1403 172.711 58.4716C172.481 58.803 172.365 59.1877 172.365 59.6257C172.365 60.103 172.5 60.5018 172.77 60.8219C173.045 61.142 173.396 61.4171 173.823 61.6474C174.255 61.872 174.71 62.091 175.187 62.3044C175.62 62.4897 176.044 62.6863 176.459 62.8941C176.88 63.1019 177.262 63.3462 177.605 63.6269C177.947 63.9021 178.22 64.2334 178.422 64.6209C178.63 65.0084 178.734 65.4745 178.734 66.0193C178.734 66.7212 178.557 67.339 178.203 67.8725C177.849 68.406 177.358 68.8215 176.729 69.1192C176.1 69.4168 175.367 69.5656 174.53 69.5656C173.8 69.5656 173.098 69.4449 172.424 69.2034C171.756 68.9619 171.127 68.6025 170.537 68.1252Z" fill="white"/>
<path d="M276.941 18.4714C271.454 18.1735 267.074 13.7863 266.785 8.29834L266.769 8C266.472 13.653 261.951 18.1672 256.297 18.4561L255.999 18.4714L256.297 18.4866C261.951 18.7756 266.472 23.2897 266.769 28.9428L266.785 28.6444C267.074 23.1564 271.454 18.7692 276.941 18.4714Z" fill="white"/>
</svg>
