<svg width="50" height="50" viewBox="0 0 50 50" fill="none" xmlns="http://www.w3.org/2000/svg">
<path d="M36.598 7.89484C39.1464 7.89491 41.2276 9.97608 41.2278 12.5228V29.1898C41.2278 31.7383 39.1465 33.8196 36.598 33.8196H28.265V35.6722H31.0423C32.5266 35.6722 33.8879 36.5128 34.5511 37.8392L35.5735 39.89C35.8787 40.5062 35.4328 41.2278 34.7454 41.2278H14.3753C13.6899 41.2276 13.2422 40.5061 13.5472 39.89L14.5716 37.8392C15.2348 36.5128 16.5961 35.6722 18.0804 35.6722H20.8587V33.8196H12.5247C9.97623 33.8195 7.89491 31.7402 7.89484 29.1917V12.5247C7.89494 9.97624 9.97624 7.89494 12.5247 7.89484H36.598ZM18.0804 37.5247C17.2939 37.5247 16.5803 37.9642 16.2278 38.6673L15.8734 39.3753H33.2493L32.8948 38.6653C32.5424 37.9623 31.8287 37.5228 31.0423 37.5228H18.0784L18.0804 37.5247ZM22.7093 35.6722H26.4124V33.8196H22.7093V35.6722ZM12.5247 9.74738C10.9693 9.74747 9.74747 10.9693 9.74738 12.5247V29.1917C9.74745 30.7454 10.9693 31.9689 12.5247 31.9691H36.598C38.1534 31.969 39.3752 30.7454 39.3753 29.1917V12.5247C39.3752 10.9694 38.1535 9.74756 36.5999 9.74738H12.5247ZM24.5609 13.4485C25.682 13.4487 26.47 14.224 26.9075 15.1907C27.8989 14.8175 29.0047 14.8268 29.7982 15.6185C30.5898 16.4101 30.5992 17.516 30.2259 18.5091C31.1909 18.9448 31.9679 19.7346 31.9681 20.8558C31.9681 21.9754 31.191 22.7657 30.2259 23.2015C30.5991 24.1945 30.5898 25.3005 29.7982 26.0921C29.0048 26.8837 27.8988 26.8921 26.9075 26.5189C26.4701 27.4858 25.6822 28.2619 24.5609 28.262C23.4393 28.262 22.6507 27.4861 22.2132 26.5208C21.2201 26.8941 20.1142 26.8857 19.3226 26.0941C18.5309 25.3007 18.5226 24.1947 18.8958 23.2034C17.9288 22.766 17.1526 21.9773 17.1526 20.8558C17.1528 19.7344 17.9308 18.9448 18.8978 18.5091C18.5228 17.5161 18.5311 16.4101 19.3226 15.6185C20.1159 14.8269 21.2219 14.8176 22.2132 15.1907C22.6507 14.2239 23.4395 13.4485 24.5609 13.4485ZM24.5609 15.3001C24.0314 15.3001 23.6351 15.6964 23.6351 16.2259V16.386C23.6349 16.7592 23.4089 17.0973 23.0618 17.2396C22.7166 17.3834 22.3196 17.3039 22.054 17.0403L21.9407 16.9271C21.5676 16.554 21.0054 16.5542 20.6321 16.9271C20.2589 17.3003 20.2589 17.8634 20.6321 18.2366L20.7444 18.3489C21.0101 18.6128 21.088 19.0122 20.9456 19.3577C20.8015 19.7032 20.4651 19.929 20.0901 19.929H19.93C19.4025 19.9292 19.0054 20.3266 19.0052 20.8558C19.0052 21.3834 19.4024 21.7814 19.93 21.7816H20.0901C20.4651 21.7816 20.8015 22.0074 20.9456 22.3528C21.088 22.7 21.0101 23.0978 20.7444 23.3616V23.3626L20.6321 23.4759C20.2589 23.8491 20.2589 24.4112 20.6321 24.7845C21.0054 25.1577 21.5675 25.1577 21.9407 24.7845L22.054 24.6722C22.3195 24.4068 22.7165 24.3288 23.0618 24.471C23.409 24.6151 23.635 24.9515 23.6351 25.3265V25.4847C23.6351 26.0124 24.0314 26.4095 24.5609 26.4095C25.0884 26.4093 25.4856 26.014 25.4857 25.4847V25.3265C25.4857 24.9515 25.7117 24.6151 26.0589 24.471C26.4044 24.3286 26.8021 24.4066 27.0677 24.6722V24.6702L27.18 24.7835C27.5532 25.1568 28.1163 25.1567 28.4896 24.7835C28.8628 24.4103 28.8628 23.8472 28.4896 23.4739L28.3763 23.3616C28.1107 23.0978 28.0328 22.7 28.1751 22.3528C28.3191 22.0075 28.6558 21.7817 29.0306 21.7816V21.7796H29.1907C29.7184 21.7796 30.1163 21.3841 30.1165 20.8548C30.1165 20.327 29.7202 19.929 29.1907 19.929H29.0306C28.6557 19.9288 28.3192 19.7031 28.1751 19.3577C28.0328 19.0123 28.1107 18.6128 28.3763 18.3489L28.4896 18.2366C28.8628 17.8634 28.8628 17.3003 28.4896 16.9271C28.1163 16.5538 27.5532 16.5538 27.18 16.9271L27.0677 17.0403C26.8021 17.3042 26.4044 17.3837 26.0589 17.2396C25.7118 17.0973 25.4858 16.7591 25.4857 16.386V16.2259C25.4856 15.6982 25.0902 15.3003 24.5609 15.3001ZM24.5628 18.0833C26.0852 18.0835 27.3401 19.3392 27.3401 20.8616C27.34 22.384 26.0851 23.6388 24.5628 23.639C23.0403 23.639 21.7847 22.3841 21.7845 20.8616C21.7845 19.3391 23.0402 18.0833 24.5628 18.0833ZM24.5628 19.9359C24.0402 19.9359 23.637 20.3391 23.637 20.8616C23.6372 21.384 24.0404 21.7864 24.5628 21.7864C25.0851 21.7863 25.4874 21.3839 25.4876 20.8616C25.4876 20.3392 25.0852 19.936 24.5628 19.9359Z" fill="#FF8412"/>
</svg>
