<svg width="50" height="50" viewBox="0 0 50 50" fill="none" xmlns="http://www.w3.org/2000/svg">
<path d="M29.1765 20.6346C28.1887 19.3887 27.3674 17.7338 25.5686 17.7823H20.7305C19.1362 17.7823 17.84 19.0785 17.84 20.6728V21.9828C17.866 23.3518 19.8952 23.3483 19.9195 21.9828V20.6728C19.9195 20.2257 20.2834 19.8618 20.7305 19.8618H25.5686C25.8199 19.8618 26.059 19.9761 26.2063 20.1702C26.6222 20.7109 27.0745 21.3053 27.5198 21.8927L28.1627 22.7384C28.2736 22.8926 28.3326 23.0676 28.3326 23.2443V27.4588C28.3326 27.9058 27.9687 28.2697 27.5216 28.2697H20.7288C20.2818 28.2697 19.9179 27.9058 19.9179 27.4588V26.1417C19.8953 24.7745 17.8609 24.7762 17.8384 26.1417V27.4588C17.8384 29.053 19.1346 30.3492 20.7288 30.3492H27.5216C29.1159 30.3492 30.412 29.053 30.412 27.4588V23.2443C30.4762 22.2808 29.7587 21.3572 29.1747 20.6346L29.1765 20.6346Z" fill="#FF8412"/>
<path d="M42.8422 23.0854H35.2624V19.7375H37.6071C38.2638 19.7375 38.8911 19.4255 39.2845 18.9022L41.4298 16.0585C42.2269 14.9616 40.6223 13.7243 39.7697 14.8056L37.607 17.658H35.2624V17.4882C35.2659 14.9339 33.1448 12.8683 30.5942 12.9273V10.522C30.5716 9.16342 28.5407 9.1478 28.5147 10.522V12.9256H25.1667V5.41016C25.1476 4.05676 23.1115 4.03249 23.0872 5.41016V12.9273H19.7393V10.6451C19.7393 9.99006 19.4273 9.36278 18.9023 8.96769L16.0586 6.82411C14.9616 6.02697 13.7244 7.6351 14.8057 8.48423L17.6581 10.6452V12.9274H17.5506C14.9721 12.9222 12.8997 15.0848 12.9897 17.6582H10.5238C9.16523 17.6824 9.14961 19.7116 10.5238 19.7376H12.9897V23.0856H5.41179C4.05839 23.1047 4.03412 25.1408 5.41179 25.1651H12.9915V28.513H10.6469C9.9901 28.513 9.36282 28.825 8.96946 29.3483L6.82415 32.192C6.30081 32.8436 6.82415 33.885 7.65421 33.8573C7.9696 33.8573 8.27981 33.7152 8.48427 33.4432L10.6469 30.5908H12.9916C12.9621 33.1607 15.0918 35.259 17.6598 35.1969V37.7252C17.6823 39.0838 19.7133 39.0994 19.7393 37.7252V35.1969H23.0872V42.8374C23.0872 43.411 23.5534 43.8772 24.127 43.8772C24.7006 43.8772 25.1668 43.411 25.1668 42.8374V35.1969H28.5147V37.6022C28.5147 38.2573 28.8266 38.8845 29.3517 39.2796L32.1954 41.4232C32.3826 41.5653 32.6026 41.6329 32.821 41.6329C33.7741 41.6623 34.2524 40.328 33.4483 39.7631L30.596 37.6022V35.1969H30.7034C33.2352 35.1986 35.2905 33.1209 35.2643 30.5908H37.7302C39.0888 30.5683 39.1044 28.5373 37.7302 28.5113H35.2643V25.1633H42.844C44.1974 25.1443 44.2217 23.1081 42.844 23.0839L42.8422 23.0854ZM33.1832 30.639C33.1832 32.0062 32.0707 33.1205 30.7016 33.1205H17.5505C16.1832 33.1205 15.0689 32.008 15.0689 30.639V17.4878C15.0689 16.1206 16.1815 15.0063 17.5505 15.0063H30.7016C32.0689 15.0063 33.1832 16.1188 33.1832 17.4878V30.639Z" fill="#FF8412"/>
</svg>
