<svg width="215" height="62" viewBox="0 0 215 62" fill="none" xmlns="http://www.w3.org/2000/svg">
<path fill-rule="evenodd" clip-rule="evenodd" d="M27.7731 61.2889C43.1117 61.2889 55.5462 48.9121 55.5462 33.6444C55.5462 18.3768 43.1117 6 27.7731 6C12.4344 6 0 18.3768 0 33.6444C0 48.9121 12.4344 61.2889 27.7731 61.2889ZM45.8846 41.1134C46.8695 38.7467 47.3764 36.21 47.3764 33.6482H27.7781L8.17969 33.6482C8.17969 36.21 8.68661 38.7467 9.67152 41.1134C10.6564 43.4802 12.1 45.6307 13.9199 47.4422C15.7398 49.2536 17.9003 50.6905 20.2781 51.6709C22.6559 52.6512 25.2044 53.1558 27.7781 53.1558C30.3517 53.1558 32.9002 52.6512 35.278 51.6709C37.6558 50.6905 39.8163 49.2536 41.6362 47.4422C43.4561 45.6307 44.8997 43.4802 45.8846 41.1134Z" fill="white"/>
<path d="M70.1922 30V12.1173H76.5227C78.6607 12.1173 80.5205 12.4868 82.1021 13.226C83.6917 13.9651 84.9236 15.0063 85.7979 16.3495C86.6801 17.6848 87.1212 19.2545 87.1212 21.0586C87.1212 22.8549 86.6801 24.4246 85.7979 25.7678C84.9236 27.1109 83.6917 28.1521 82.1021 28.8913C80.5205 29.6304 78.6607 30 76.5227 30H70.1922ZM74.9132 25.887H76.6777C77.8857 25.887 78.907 25.7002 79.7416 25.3266C80.5761 24.9531 81.208 24.4087 81.6371 23.6934C82.0743 22.9701 82.2928 22.0919 82.2928 21.0586C82.2928 20.0175 82.0743 19.1392 81.6371 18.4239C81.208 17.7086 80.5761 17.1642 79.7416 16.7906C78.907 16.4171 77.8857 16.2303 76.6777 16.2303H74.9132V25.887ZM89.0287 30V12.1173H100.95V16.2303H93.7497V18.9962H100.474V23.1092H93.7497V25.887H101.07V30H89.0287ZM120.049 30H114.494L108.056 19.3896V30H103.335V12.1173H108.89L115.328 22.7635V12.1173H120.049V30ZM131.041 30H126.32V16.2303H121.361V12.1173H136.001V16.2303H131.041V30ZM142.033 12.1173V30H137.312V12.1173H142.033ZM143.583 27.9494L145.8 24.3491C146.381 24.8021 146.921 25.1717 147.422 25.4578C147.93 25.7439 148.423 25.9545 148.9 26.0896C149.385 26.2168 149.878 26.2804 150.378 26.2804C150.871 26.2804 151.292 26.2248 151.642 26.1135C151.992 25.9943 152.258 25.8274 152.441 25.6128C152.632 25.3902 152.727 25.1279 152.727 24.8259C152.727 24.4444 152.592 24.1186 152.322 23.8483C152.051 23.5781 151.69 23.3357 151.237 23.1211C150.792 22.9065 150.303 22.6919 149.77 22.4773C149.198 22.2468 148.614 21.9925 148.018 21.7143C147.422 21.4282 146.873 21.0825 146.373 20.6771C145.872 20.2718 145.467 19.779 145.157 19.1988C144.847 18.6107 144.692 17.8954 144.692 17.0529C144.692 15.9402 144.97 14.9904 145.526 14.2036C146.091 13.4088 146.857 12.8048 147.827 12.3915C148.805 11.9702 149.909 11.7596 151.141 11.7596C152.039 11.7596 152.989 11.8788 153.991 12.1173C154.992 12.3557 156.005 12.7292 157.031 13.2379L155.195 17.0291C154.623 16.6793 153.995 16.4012 153.311 16.1945C152.636 15.9799 152.016 15.8726 151.451 15.8726C151.062 15.8726 150.72 15.9243 150.426 16.0276C150.14 16.1309 149.917 16.282 149.758 16.4806C149.599 16.6714 149.52 16.8979 149.52 17.1602C149.52 17.5099 149.655 17.8199 149.925 18.0901C150.196 18.3524 150.553 18.5948 150.998 18.8173C151.443 19.0399 151.928 19.2664 152.453 19.4969C153.025 19.7433 153.609 20.0175 154.205 20.3195C154.809 20.6215 155.362 20.9792 155.862 21.3924C156.371 21.8057 156.78 22.3025 157.09 22.8827C157.4 23.4549 157.555 24.1424 157.555 24.9451C157.555 26.0181 157.261 26.9639 156.673 27.7825C156.093 28.5932 155.278 29.2251 154.229 29.6781C153.188 30.1311 151.976 30.3577 150.593 30.3577C149.305 30.3577 148.066 30.151 146.873 29.7377C145.681 29.3244 144.584 28.7283 143.583 27.9494ZM167.713 30H162.992V16.2303H158.032V12.1173H172.672V16.2303H167.713V30ZM74.9132 38.1173V56H70.1922V38.1173H74.9132ZM94.012 56H88.4564L82.0186 45.3896V56H77.2976V38.1173H82.8532L89.2909 48.7635V38.1173H94.012V56ZM96.3964 56V38.1173H102.727C104.865 38.1173 106.725 38.4868 108.306 39.226C109.896 39.9651 111.128 41.0063 112.002 42.3495C112.884 43.6848 113.325 45.2545 113.325 47.0586C113.325 48.8549 112.884 50.4246 112.002 51.7678C111.128 53.1109 109.896 54.1521 108.306 54.8913C106.725 55.6304 104.865 56 102.727 56H96.3964ZM101.117 51.887H102.882C104.09 51.887 105.111 51.7002 105.946 51.3266C106.78 50.9531 107.412 50.4087 107.841 49.6934C108.278 48.9701 108.497 48.0919 108.497 47.0586C108.497 46.0175 108.278 45.1392 107.841 44.4239C107.412 43.7086 106.78 43.1642 105.946 42.7906C105.111 42.4171 104.09 42.2303 102.882 42.2303H101.117V51.887ZM119.954 38.1173V56H115.233V38.1173H119.954ZM126.213 56H121.265L128.251 38.1173H133.199L140.173 56H135.226L134.069 52.8169H127.369L126.213 56ZM128.871 48.7038H132.579L130.719 43.6013L128.871 48.7038ZM146.73 56V38.1173H153.252C154.785 38.1173 156.113 38.3756 157.233 38.8922C158.362 39.4008 159.228 40.1281 159.832 41.0739C160.444 42.0117 160.75 43.1284 160.75 44.4239C160.75 45.7194 160.444 46.844 159.832 47.7978C159.228 48.7436 158.37 49.4748 157.257 49.9914C156.145 50.508 154.829 50.7663 153.311 50.7663H151.451V56H146.73ZM151.451 46.6533H152.787C153.804 46.6533 154.579 46.4625 155.111 46.081C155.652 45.6995 155.922 45.1472 155.922 44.4239C155.922 43.7165 155.652 43.1761 155.111 42.8025C154.579 42.421 153.804 42.2303 152.787 42.2303H151.451V46.6533ZM175.295 56H163.135V38.1173H167.856V51.887H175.295V56ZM191.676 38.1173V47.9289C191.676 49.6775 191.354 51.1836 190.71 52.4473C190.074 53.7031 189.156 54.6687 187.956 55.3443C186.764 56.0199 185.333 56.3577 183.664 56.3577C182.003 56.3577 180.572 56.0199 179.372 55.3443C178.172 54.6687 177.25 53.7031 176.606 52.4473C175.971 51.1836 175.653 49.6775 175.653 47.9289V38.1173H180.374V47.2851C180.374 48.4217 180.489 49.3556 180.719 50.0868C180.958 50.818 181.32 51.3624 181.804 51.7201C182.289 52.0698 182.909 52.2446 183.664 52.2446C184.419 52.2446 185.039 52.0698 185.524 51.7201C186.009 51.3624 186.366 50.818 186.597 50.0868C186.835 49.3556 186.955 48.4217 186.955 47.2851V38.1173H191.676ZM193.225 53.9494L195.443 50.3491C196.023 50.8021 196.564 51.1717 197.064 51.4578C197.573 51.7439 198.066 51.9545 198.543 52.0896C199.027 52.2168 199.52 52.2804 200.021 52.2804C200.514 52.2804 200.935 52.2248 201.285 52.1135C201.634 51.9943 201.901 51.8274 202.083 51.6128C202.274 51.3902 202.369 51.1279 202.369 50.8259C202.369 50.4444 202.234 50.1186 201.964 49.8483C201.694 49.5781 201.332 49.3357 200.879 49.1211C200.434 48.9065 199.945 48.6919 199.413 48.4773C198.841 48.2468 198.256 47.9925 197.66 47.7143C197.064 47.4282 196.516 47.0825 196.015 46.6771C195.514 46.2718 195.109 45.779 194.799 45.1988C194.489 44.6107 194.334 43.8954 194.334 43.0529C194.334 41.9402 194.612 40.9904 195.169 40.2036C195.733 39.4088 196.5 38.8048 197.47 38.3915C198.447 37.9702 199.552 37.7596 200.784 37.7596C201.682 37.7596 202.632 37.8788 203.633 38.1173C204.635 38.3557 205.648 38.7292 206.673 39.2379L204.837 43.0291C204.265 42.6793 203.637 42.4012 202.954 42.1945C202.278 41.9799 201.658 41.8726 201.094 41.8726C200.704 41.8726 200.363 41.9243 200.069 42.0276C199.782 42.1309 199.56 42.282 199.401 42.4806C199.242 42.6714 199.163 42.8979 199.163 43.1602C199.163 43.5099 199.298 43.8199 199.568 44.0901C199.838 44.3524 200.196 44.5948 200.641 44.8173C201.086 45.0399 201.571 45.2664 202.095 45.4969C202.668 45.7433 203.252 46.0175 203.848 46.3195C204.452 46.6215 205.004 46.9792 205.505 47.3924C206.014 47.8057 206.423 48.3025 206.733 48.8827C207.043 49.4549 207.198 50.1424 207.198 50.9451C207.198 52.0181 206.904 52.9639 206.316 53.7825C205.735 54.5932 204.921 55.2251 203.872 55.6781C202.83 56.1311 201.618 56.3577 200.235 56.3577C198.948 56.3577 197.708 56.151 196.516 55.7377C195.324 55.3244 194.227 54.7283 193.225 53.9494Z" fill="white"/>
<path d="M192 9C187.284 8.744 183.519 4.97326 183.271 0.256427L183.257 -3.82162e-07C183.001 4.8587 179.116 8.73855 174.256 8.98689L174 9L174.256 9.01311C179.116 9.26144 183.001 13.1413 183.257 18L183.271 17.7436C183.519 13.0267 187.284 9.25599 192 9Z" fill="white"/>
</svg>
